<mxfile host="app.diagrams.net" modified="2023-09-15T04:28:50.338Z" agent="Mozilla/5.0 (Windows NT 10.0; Win64; x64) AppleWebKit/537.36 (KHTML, like Gecko) Chrome/116.0.0.0 Safari/537.36" etag="qlVWZU5MHyHe6yfqzUsq" version="21.7.5" type="device">
  <diagram name="Page-1" id="tQHbzxXb96Q8Pks__jBQ">
    <mxGraphModel dx="772" dy="372" grid="1" gridSize="10" guides="1" tooltips="1" connect="1" arrows="1" fold="1" page="1" pageScale="1" pageWidth="1654" pageHeight="1169" math="0" shadow="0">
      <root>
        <mxCell id="0" />
        <mxCell id="1" parent="0" />
        <mxCell id="OtvbWnf1fLH_UQD5uZZM-1" value="Chatbot" style="swimlane;fontStyle=1;align=center;verticalAlign=top;childLayout=stackLayout;horizontal=1;startSize=26;horizontalStack=0;resizeParent=1;resizeParentMax=0;resizeLast=0;collapsible=1;marginBottom=0;whiteSpace=wrap;html=1;" parent="1" vertex="1">
          <mxGeometry x="40" y="40" width="240" height="194" as="geometry" />
        </mxCell>
        <mxCell id="OtvbWnf1fLH_UQD5uZZM-2" value="+ status: ChatbotStatus" style="text;strokeColor=none;fillColor=none;align=left;verticalAlign=top;spacingLeft=4;spacingRight=4;overflow=hidden;rotatable=0;points=[[0,0.5],[1,0.5]];portConstraint=eastwest;whiteSpace=wrap;html=1;" parent="OtvbWnf1fLH_UQD5uZZM-1" vertex="1">
          <mxGeometry y="26" width="240" height="26" as="geometry" />
        </mxCell>
        <mxCell id="OtvbWnf1fLH_UQD5uZZM-12" value="+ latestMsg: Msg" style="text;strokeColor=none;fillColor=none;align=left;verticalAlign=top;spacingLeft=4;spacingRight=4;overflow=hidden;rotatable=0;points=[[0,0.5],[1,0.5]];portConstraint=eastwest;whiteSpace=wrap;html=1;" parent="OtvbWnf1fLH_UQD5uZZM-1" vertex="1">
          <mxGeometry y="52" width="240" height="26" as="geometry" />
        </mxCell>
        <mxCell id="OtvbWnf1fLH_UQD5uZZM-3" value="" style="line;strokeWidth=1;fillColor=none;align=left;verticalAlign=middle;spacingTop=-1;spacingLeft=3;spacingRight=3;rotatable=0;labelPosition=right;points=[];portConstraint=eastwest;strokeColor=inherit;" parent="OtvbWnf1fLH_UQD5uZZM-1" vertex="1">
          <mxGeometry y="78" width="240" height="8" as="geometry" />
        </mxCell>
        <mxCell id="OtvbWnf1fLH_UQD5uZZM-4" value="+ Chatbot(flow: FlowData, opts: ChatbotOpts)" style="text;strokeColor=none;fillColor=none;align=left;verticalAlign=top;spacingLeft=4;spacingRight=4;overflow=hidden;rotatable=0;points=[[0,0.5],[1,0.5]];portConstraint=eastwest;whiteSpace=wrap;html=1;" parent="OtvbWnf1fLH_UQD5uZZM-1" vertex="1">
          <mxGeometry y="86" width="240" height="40" as="geometry" />
        </mxCell>
        <mxCell id="OtvbWnf1fLH_UQD5uZZM-5" value="+ input(msg: string): void" style="text;strokeColor=none;fillColor=none;align=left;verticalAlign=top;spacingLeft=4;spacingRight=4;overflow=hidden;rotatable=0;points=[[0,0.5],[1,0.5]];portConstraint=eastwest;whiteSpace=wrap;html=1;" parent="OtvbWnf1fLH_UQD5uZZM-1" vertex="1">
          <mxGeometry y="126" width="240" height="26" as="geometry" />
        </mxCell>
        <mxCell id="OtvbWnf1fLH_UQD5uZZM-8" value="+ addListener(event: ChatbotEvent, listener: function): void" style="text;strokeColor=none;fillColor=none;align=left;verticalAlign=top;spacingLeft=4;spacingRight=4;overflow=hidden;rotatable=0;points=[[0,0.5],[1,0.5]];portConstraint=eastwest;whiteSpace=wrap;html=1;" parent="OtvbWnf1fLH_UQD5uZZM-1" vertex="1">
          <mxGeometry y="152" width="240" height="42" as="geometry" />
        </mxCell>
        <mxCell id="OtvbWnf1fLH_UQD5uZZM-9" value="&amp;lt;&amp;lt;enumeration&amp;gt;&amp;gt;&lt;br&gt;&lt;b&gt;ChatbotStatus&lt;/b&gt;" style="swimlane;fontStyle=0;align=center;verticalAlign=top;childLayout=stackLayout;horizontal=1;startSize=40;horizontalStack=0;resizeParent=1;resizeParentMax=0;resizeLast=0;collapsible=0;marginBottom=0;html=1;whiteSpace=wrap;" parent="1" vertex="1">
          <mxGeometry x="320" y="40" width="140" height="100" as="geometry" />
        </mxCell>
        <mxCell id="OtvbWnf1fLH_UQD5uZZM-10" value="WaitingInput" style="text;html=1;strokeColor=none;fillColor=none;align=left;verticalAlign=middle;spacingLeft=4;spacingRight=4;overflow=hidden;rotatable=0;points=[[0,0.5],[1,0.5]];portConstraint=eastwest;whiteSpace=wrap;" parent="OtvbWnf1fLH_UQD5uZZM-9" vertex="1">
          <mxGeometry y="40" width="140" height="30" as="geometry" />
        </mxCell>
        <mxCell id="OtvbWnf1fLH_UQD5uZZM-13" value="Busy" style="text;html=1;strokeColor=none;fillColor=none;align=left;verticalAlign=middle;spacingLeft=4;spacingRight=4;overflow=hidden;rotatable=0;points=[[0,0.5],[1,0.5]];portConstraint=eastwest;whiteSpace=wrap;" parent="OtvbWnf1fLH_UQD5uZZM-9" vertex="1">
          <mxGeometry y="70" width="140" height="30" as="geometry" />
        </mxCell>
        <mxCell id="OtvbWnf1fLH_UQD5uZZM-15" value="Steppy" style="swimlane;fontStyle=1;align=center;verticalAlign=top;childLayout=stackLayout;horizontal=1;startSize=26;horizontalStack=0;resizeParent=1;resizeParentMax=0;resizeLast=0;collapsible=1;marginBottom=0;whiteSpace=wrap;html=1;" parent="1" vertex="1">
          <mxGeometry x="480" y="40" width="160" height="214" as="geometry" />
        </mxCell>
        <mxCell id="OtvbWnf1fLH_UQD5uZZM-16" value="+ nextStep: StepLink" style="text;strokeColor=none;fillColor=none;align=left;verticalAlign=top;spacingLeft=4;spacingRight=4;overflow=hidden;rotatable=0;points=[[0,0.5],[1,0.5]];portConstraint=eastwest;whiteSpace=wrap;html=1;" parent="OtvbWnf1fLH_UQD5uZZM-15" vertex="1">
          <mxGeometry y="26" width="160" height="26" as="geometry" />
        </mxCell>
        <mxCell id="kfnKp8jq_Uo-FfgJklgX-1" value="+ step: Step" style="text;strokeColor=none;fillColor=none;align=left;verticalAlign=top;spacingLeft=4;spacingRight=4;overflow=hidden;rotatable=0;points=[[0,0.5],[1,0.5]];portConstraint=eastwest;whiteSpace=wrap;html=1;" vertex="1" parent="OtvbWnf1fLH_UQD5uZZM-15">
          <mxGeometry y="52" width="160" height="26" as="geometry" />
        </mxCell>
        <mxCell id="OtvbWnf1fLH_UQD5uZZM-17" value="" style="line;strokeWidth=1;fillColor=none;align=left;verticalAlign=middle;spacingTop=-1;spacingLeft=3;spacingRight=3;rotatable=0;labelPosition=right;points=[];portConstraint=eastwest;strokeColor=inherit;" parent="OtvbWnf1fLH_UQD5uZZM-15" vertex="1">
          <mxGeometry y="78" width="160" height="8" as="geometry" />
        </mxCell>
        <mxCell id="OtvbWnf1fLH_UQD5uZZM-26" value="+ getInput(): string" style="text;strokeColor=none;fillColor=none;align=left;verticalAlign=top;spacingLeft=4;spacingRight=4;overflow=hidden;rotatable=0;points=[[0,0.5],[1,0.5]];portConstraint=eastwest;whiteSpace=wrap;html=1;" parent="OtvbWnf1fLH_UQD5uZZM-15" vertex="1">
          <mxGeometry y="86" width="160" height="24" as="geometry" />
        </mxCell>
        <mxCell id="FraJj3cUV1BBXsfJSQ5g-1" value="+ acceptInput(): void" style="text;strokeColor=none;fillColor=none;align=left;verticalAlign=top;spacingLeft=4;spacingRight=4;overflow=hidden;rotatable=0;points=[[0,0.5],[1,0.5]];portConstraint=eastwest;whiteSpace=wrap;html=1;" parent="OtvbWnf1fLH_UQD5uZZM-15" vertex="1">
          <mxGeometry y="110" width="160" height="24" as="geometry" />
        </mxCell>
        <mxCell id="FraJj3cUV1BBXsfJSQ5g-2" value="+ rejectInput(err: string): void" style="text;strokeColor=none;fillColor=none;align=left;verticalAlign=top;spacingLeft=4;spacingRight=4;overflow=hidden;rotatable=0;points=[[0,0.5],[1,0.5]];portConstraint=eastwest;whiteSpace=wrap;html=1;" parent="OtvbWnf1fLH_UQD5uZZM-15" vertex="1">
          <mxGeometry y="134" width="160" height="40" as="geometry" />
        </mxCell>
        <mxCell id="FraJj3cUV1BBXsfJSQ5g-10" value="+ print(msg: Message): void" style="text;strokeColor=none;fillColor=none;align=left;verticalAlign=top;spacingLeft=4;spacingRight=4;overflow=hidden;rotatable=0;points=[[0,0.5],[1,0.5]];portConstraint=eastwest;whiteSpace=wrap;html=1;" parent="OtvbWnf1fLH_UQD5uZZM-15" vertex="1">
          <mxGeometry y="174" width="160" height="40" as="geometry" />
        </mxCell>
      </root>
    </mxGraphModel>
  </diagram>
</mxfile>
